<?xml version="1.0" encoding="utf-8"?>
<!-- Generator: Adobe Illustrator 24.0.1, SVG Export Plug-In . SVG Version: 6.00 Build 0)  -->
<svg version="1.1" id="Capa_1" xmlns="http://www.w3.org/2000/svg" xmlns:xlink="http://www.w3.org/1999/xlink" x="0px" y="0px"
	 viewBox="0 0 512 512" style="enable-background:new 0 0 512 512;" xml:space="preserve">
<style type="text/css">
	.st0{fill:#FE585E;}
	.st1{opacity:0.35;}
	.st2{fill:#FFFFFF;}
	.st3{display:none;fill:#FFFFFF;}
	.st4{font-family:'WaltographUI-Bold';}
	.st5{font-size:500px;}
</style>
<g>
	<circle class="st0" cx="256" cy="256" r="256"/>
	<g class="st1">
		<path class="st2" d="M437,75c100,100,100,262.1,0,362S175,537,75,437L437,75z"/>
	</g>
</g>
<text id="B-non_x5F_exp" transform="matrix(1 0 0 1 512.001 392)" class="st3 st4 st5">B</text>
<g id="B-non_x5F_exp_1_">
	<path class="st2" d="M137.5,419.5c-3-17.7-5.1-34.6-6.3-50.8c-1.2-16.2-1.8-33.3-1.8-51.3c0-5.7,0-11.3,0-17c0-6,0.3-12.3,1-19
		c0-7.7,0.8-16.8,2.3-27.3s3.5-21.3,6-32.5c2.5-11.2,5.3-22.3,8.3-33.3s6.2-21,9.5-30c-7.7,3-15,5.3-22,6.8s-13,2.3-18,2.3
		c-5.3,0-11.3-4.7-18-14c1-5,2.8-9.2,5.3-12.5c2.5-3.3,5.1-6.8,7.8-10.5c10.3-12.3,22.8-22,37.3-29s29.5-12.3,45-15.8
		s30.9-5.6,46.3-6.3c15.3-0.7,28.8-1,40.5-1c14,0,27.2,2.4,39.5,7.3c12.3,4.8,23.2,11.4,32.5,19.8c9.3,8.3,16.7,18.1,22,29.3
		c5.3,11.2,8,23.1,8,35.8c0,7.7-2.1,15.7-6.3,24c-4.2,8.3-11.8,17-22.8,26c17.7,4,32.1,12.7,43.3,26c11.2,13.3,16.8,30,16.8,50
		c0,23.7-3.4,44.1-10.3,61.3c-6.8,17.2-16.3,31.3-28.5,42.5c-12.2,11.2-26.6,19.5-43.3,25c-16.7,5.5-34.7,8.3-54,8.3
		c-7.3-0.7-14.7-1.1-22-1.3c-7.3-0.2-14.8-0.3-22.3-0.5c-7.5-0.2-14.8-0.7-22-1.5c-7.2-0.8-14.1-2.4-20.8-4.8
		c-4,1.7-8.8,2.9-14.3,3.8s-10.8,1.3-15.8,1.3c-5.7,0-10.4-0.7-14.3-2c-3.8-1.3-6.8-4-8.8-8V419.5z M268.5,272.5
		c-13.7,0-26.4,0.6-38.3,1.8c-11.8,1.2-20.1,2.6-24.8,4.3l-5,79c4-4.3,9-8.6,15-12.8c6-4.2,12.7-7.9,20-11.3c7.3-3.3,15.1-6,23.3-8
		c8.2-2,16.4-3,24.8-3l15,1v5c0,3.7-2.3,7.1-7,10.3c-4.7,3.2-10,6.8-16,10.8c-5.7,3-11.2,5.9-16.5,8.8c-5.3,2.8-8.8,5.6-10.5,8.3
		c11.7,0,23.3-0.8,35-2.5c11.7-1.7,22.2-4.8,31.5-9.5c9.3-4.7,16.9-11.3,22.8-19.8c5.8-8.5,8.8-19.6,8.8-33.3
		c0-5.7-2.3-10.4-6.8-14.3c-4.5-3.8-10.5-6.8-18-9c-7.5-2.2-15.9-3.7-25.3-4.5C287.2,272.9,277.8,272.5,268.5,272.5z M267.5,138.5
		c-13.3,0-28,2-44,6c-0.7,3.7-1.4,7-2.3,10c-0.8,3-1.8,6.3-2.8,10c-2,8-4.1,16.3-6.3,25c-2.2,8.7-3.8,18-4.8,28
		c10.3-1.3,21.6-3.2,33.8-5.5c12.2-2.3,23.5-5.3,34-9c10.5-3.7,19.3-8.1,26.5-13.3c7.2-5.2,10.8-11.6,10.8-19.3c0-5-0.3-9.4-1-13.3
		c-0.7-3.8-2.3-7.1-4.8-9.8c-2.5-2.7-6.1-4.8-10.8-6.3c-4.7-1.5-10.8-2.4-18.5-2.8H267.5z"/>
</g>
</svg>
